<?xml version="1.0" encoding="utf-8"?>
<!-- Generator: Adobe Illustrator 16.0.4, SVG Export Plug-In . SVG Version: 6.00 Build 0)  -->
<!DOCTYPE svg PUBLIC "-//W3C//DTD SVG 1.1//EN" "http://www.w3.org/Graphics/SVG/1.1/DTD/svg11.dtd">
<svg version="1.1" id="Layer_1" xmlns="http://www.w3.org/2000/svg" xmlns:xlink="http://www.w3.org/1999/xlink" x="0px" y="0px"
	 width="229.801px" height="127.128px" viewBox="0 0 229.801 127.128" enable-background="new 0 0 229.801 127.128"
	 xml:space="preserve">
<g>
	
		<image overflow="visible" opacity="0.5" width="609" height="207" xlink:href="8C2807ACC596048A.png"  transform="matrix(0.24 0 0 0.24 3.2197 7.2456)">
	</image>
	<g>
		<g>
			<path d="M5.22,9.246h34.381v8.864H18.077v6.599h19.966v8.468H18.077v8.185h22.146v9.402H5.22V9.246z"/>
			<path d="M46.992,9.246h16.872l6.506,25.262l6.46-25.262h16.862v41.518H83.186V19.101L75.09,50.763h-9.51l-8.081-31.662v31.662
				H46.992V9.246z"/>
			<path d="M127.401,43.91h-14.565l-2.023,6.854H97.714l15.604-41.518h13.994l15.601,41.518h-13.435L127.401,43.91z M124.74,34.932
				l-4.583-14.925l-4.535,14.925H124.74z"/>
		</g>
		<g>
			<path fill="none" stroke="#C23744" stroke-width="2" d="M5.22,9.246h34.381v8.864H18.077v6.599h19.966v8.468H18.077v8.185h22.146
				v9.402H5.22V9.246z"/>
			<path fill="none" stroke="#C23744" stroke-width="2" d="M46.992,9.246h16.872l6.506,25.262l6.46-25.262h16.862v41.518H83.186
				V19.101L75.09,50.763h-9.51l-8.081-31.662v31.662H46.992V9.246z"/>
			<path fill="none" stroke="#C23744" stroke-width="2" d="M127.401,43.91h-14.565l-2.023,6.854H97.714l15.604-41.518h13.994
				l15.601,41.518h-13.435L127.401,43.91z M124.74,34.932l-4.583-14.925l-4.535,14.925H124.74z"/>
		</g>
	</g>
</g>
<g>
	
		<image overflow="visible" opacity="0.5" width="946" height="332" xlink:href="8C2807ACC596048E.png"  transform="matrix(0.24 0 0 0.24 5.8716 43.0322)">
	</image>
	<g>
		<g>
			<path fill="#C23744" d="M44.287,89.15c-0.175,0.994-0.65,2.149-1.424,3.469c-1.922,3.22-4.87,5.504-8.844,6.852
				c-3.622,1.194-7.403,1.443-11.342,0.749c-6.46-1.139-10.994-4.453-13.6-9.942c-2.245-4.775-2.775-10.521-1.591-17.235
				c0.98-5.559,2.767-10.625,5.36-15.197c2.923-5.217,6.554-9.066,10.89-11.545c3.429-1.937,6.691-2.633,9.791-2.087
				c4.464,0.787,7.509,3.329,9.135,7.623c1.335,3.484,1.582,7.618,0.739,12.396c-0.38,2.154-1.408,4.761-3.085,7.823
				c-2.018,3.761-3.84,5.497-5.468,5.21c-1.839-0.324-3.026-1.724-3.564-4.203c0.589-0.274,1.432-0.749,2.526-1.423
				c1.253-0.97,2.177-3.136,2.77-6.498c0.574-3.256,0.718-6.074,0.435-8.453c-0.449-3.599-1.881-5.612-4.297-6.038
				c-1.682-0.297-3.709,0.454-6.083,2.251c-1.811,1.357-3.416,2.939-4.817,4.746c-3.462,4.58-5.853,10.619-7.175,18.116
				c-1.923,10.905,1.212,17.08,9.406,18.525c3.518,0.62,6.477,0.12,8.875-1.502c0.996-0.738,2.557-2.372,4.682-4.902
				c1.462-1.839,2.823-2.649,4.083-2.427c0.84,0.148,1.518,0.605,2.033,1.37S44.425,88.366,44.287,89.15z"/>
			<path fill="#C23744" d="M77.051,87.83c-1.195,6.775-2.248,11.519-3.159,14.228c-0.55,1.581-1.797,2.201-3.74,1.859
				c-2.942-0.52-3.995-2.222-3.161-5.107c-2.849,0.798-5.691,0.946-8.527,0.446c-2.732-0.481-5.211-1.623-7.438-3.424
				c-2.655-2.146-3.759-4.48-3.315-7.001c0.436-2.468,2.523-4.482,6.265-6.044c3.388-1.406,6.423-1.874,9.101-1.401l6.697,1.181
				l0.331-1.876c1.017-5.463-0.128-8.486-3.438-9.07c-4.149-0.731-6.563,0.827-7.241,4.674c-0.229,1.3-1.08,1.82-2.55,1.561
				c-0.894-0.157-1.754-0.728-2.582-1.714c-0.829-0.985-1.164-1.924-1.006-2.818c0.519-2.941,1.995-5.172,4.43-6.692
				c2.434-1.521,5.121-2.021,8.063-1.502C75.656,66.869,79.412,74.436,77.051,87.83z M68.593,89.263
				c0.185-1.05-0.51-1.715-2.085-1.993c-6.566-1.158-10.122-0.187-10.668,2.912c-0.296,1.682,1,2.775,3.889,3.285
				c1.785,0.314,3.554,0.112,5.306-0.608C67.12,92.09,68.306,90.891,68.593,89.263z"/>
			<path fill="#C23744" d="M102.891,72.331c-0.25,1.418-2.58,2.037-6.99,1.854c-0.308,1.138-0.822,3.754-1.545,7.851l-0.917,5.2
				c-0.185,1.051-0.301,2.627-0.347,4.731c-0.046,2.104-0.157,3.656-0.333,4.653c-0.148,0.841-0.701,1.515-1.656,2.022
				c-0.957,0.51-1.855,0.688-2.695,0.54c-1.313-0.231-2.217-1.555-2.711-3.971c-0.378-1.854-0.423-3.595-0.136-5.223l2.945-16.703
				c-2.352-0.793-3.702-1.274-4.051-1.445c-1.292-0.661-1.867-1.385-1.729-2.173c0.037-0.209,0.13-0.437,0.282-0.681
				c1.708-1.702,3.402-2.406,5.084-2.109c0.104,0.019,0.262,0.046,0.473,0.083c0.2,0.09,0.353,0.144,0.459,0.162
				c1.103,0.194,1.854-1,2.256-3.583l1.015-5.751c-0.162-0.624-0.204-1.145-0.13-1.566c0.12-0.682,0.632-1.229,1.535-1.638
				s1.719-0.55,2.447-0.421c1.093,0.193,2.042,0.888,2.851,2.087c0.808,1.198,1.11,2.376,0.906,3.531
				c-0.222,1.261-0.64,2.474-1.251,3.638c-0.611,1.165-1.007,2.409-1.186,3.731l-0.056,0.315
				C101.435,68.609,103.261,70.23,102.891,72.331z"/>
			<path fill="#C23744" d="M127.333,94.123c-0.464,2.627-2.611,4.36-6.441,5.201c-2.988,0.663-6.005,0.728-9.051,0.19
				c-8.089-1.426-11.322-6.734-9.701-15.926c0.666-3.782,2.325-7.821,4.979-12.119c3.258-5.274,6.49-7.629,9.694-7.064
				c2.888,0.509,5.772,2.345,8.655,5.506c2.881,3.162,4.076,6.135,3.586,8.918c-0.611,3.466-2.647,5.951-6.107,7.453
				c-3.056,1.357-6.474,1.702-10.255,1.035c-0.736-0.13-1.84-0.784-3.31-1.964c-0.671,5.027,0.36,7.781,3.092,8.262
				c2.311,0.407,4.698,0.152,7.162-0.768c2.464-0.919,4.012-1.323,4.642-1.212C126.536,92.033,127.555,92.863,127.333,94.123z
				 M121.371,77.718c0.23-1.312,0.069-2.628-0.483-3.944s-1.46-2.085-2.721-2.308c-1.732-0.305-3.206,0.22-4.421,1.577
				c-1.019,1.174-1.687,2.655-2.001,4.44c-0.176,0.998,0.021,1.872,0.594,2.623c0.57,0.75,1.382,1.219,2.433,1.404
				C118.605,82.186,120.806,80.922,121.371,77.718z"/>
			<path fill="#C23744" d="M154.196,73.454c-0.065,0.368-0.22,0.936-0.464,1.706c-1.381,1.381-2.676,1.965-3.883,1.752
				c-0.998-0.176-1.789-0.911-2.373-2.206c0.311-2.382-0.32-3.712-1.896-3.99c-0.945-0.167-2.541,2.125-4.786,6.874
				c-1.019,2.095-1.876,5.112-2.57,9.051c-0.658,3.73-0.885,6.018-0.681,6.867c0.216,1.067,0.292,1.785,0.228,2.151
				c-0.157,0.895-0.688,1.544-1.592,1.954c-0.904,0.409-1.85,0.526-2.837,0.353c-2.81-0.496-3.982-2.056-3.52-4.683
				c0.046-0.262,0.177-0.619,0.392-1.068c0.214-0.45,0.341-0.778,0.378-0.989c0.472-2.679,1.042-6.681,1.71-12.005
				c0.668-5.325,1.234-9.299,1.697-11.926c0.417-2.364,2.043-3.295,4.879-2.795c1.681,0.296,2.749,1,3.203,2.108
				c1.757-1.369,3.555-1.892,5.394-1.567c1.261,0.222,2.408,0.777,3.444,1.663c0.713,0.56,1.472,1.628,2.277,3.205
				C154.001,71.484,154.335,72.666,154.196,73.454z"/>
			<path fill="#C23744" d="M166.729,69.231c-0.167,0.945-0.614,2.248-1.339,3.907c-0.727,1.659-1.173,2.961-1.339,3.907
				l-2.862,16.229c-0.176,0.999-0.139,2.63,0.112,4.895c-1.009,1.068-1.99,1.517-2.945,1.349c-3.341-0.589-4.88-2.566-4.614-5.932
				c0.559-6.237,1.111-10.905,1.657-14.005c0.917-5.2,1.896-9.521,2.937-12.967c0.046-0.262,0.093-0.524,0.139-0.788
				c0.167-0.945,0.979-1.29,2.437-1.033c1.3,0.229,2.555,0.722,3.765,1.477C166.237,67.142,166.923,68.128,166.729,69.231z
				 M169.382,58.326c-0.204,1.156-0.765,2.032-1.682,2.628c-0.918,0.597-1.955,0.792-3.109,0.589
				c-1.366-0.241-2.556-0.938-3.571-2.092c-1.015-1.154-1.402-2.413-1.161-3.779c0.203-1.155,0.776-2.028,1.721-2.621
				c0.943-0.591,2.02-0.781,3.229-0.568c1.418,0.25,2.597,0.933,3.538,2.045C169.286,55.643,169.632,56.908,169.382,58.326z"/>
			<path fill="#C23744" d="M192.583,100.658c-1.001,1.068-2.08,1.501-3.234,1.298c-0.894-0.158-2.271-0.942-4.134-2.354l0.166-0.945
				c0.204-1.155,0.531-2.858,0.982-5.107c0.449-2.248,0.769-3.898,0.954-4.95c1.981-11.239,1.301-17.155-2.041-17.744
				c-0.94-0.166-2.141,0.382-3.601,1.64c-4.505,3.864-7.317,8.974-8.438,15.328c-0.158,0.894-0.222,2.249-0.189,4.069
				c0.03,1.82-0.032,3.177-0.189,4.068c-0.13,0.736-0.579,1.279-1.344,1.632c-0.767,0.353-1.543,0.459-2.331,0.32
				c-3.151-0.556-4.375-2.829-3.672-6.821l2.904-16.466c0.073-0.42,0.234-1.028,0.483-1.824c0.248-0.795,0.41-1.403,0.484-1.824
				c0.111-0.63,0.181-1.565,0.21-2.806c0.028-1.24,0.095-2.149,0.197-2.727c0.147-0.84,0.774-1.556,1.881-2.146
				c1.105-0.59,2.053-0.816,2.841-0.677c1.154,0.204,2.221,1.069,3.198,2.595l-0.792,3.11c2.488-2.756,5.152-3.884,7.988-3.384
				c1.838,0.324,3.671,1.297,5.497,2.919s3.073,3.304,3.74,5.046c1.449,4.372,1.601,9.814,0.452,16.326L192.583,100.658z"/>
			<path fill="#C23744" d="M227.797,77.775c-0.337,1.295-1.085,3.545-2.246,6.752c-1.035,2.796-1.705,5.061-2.011,6.793
				c-0.277,1.576-0.615,3.954-1.014,7.133c-0.398,3.18-0.736,5.557-1.014,7.133c-0.574,3.256-1.315,5.616-2.224,7.081
				c-1.088,1.865-2.764,3.235-5.03,4.109c-2.266,0.872-4.502,1.115-6.708,0.726c-2.312-0.407-5.062-1.542-8.254-3.405
				c-3.837-2.193-5.599-4.183-5.284-5.968c0.408-2.312,1.688-3.276,3.842-2.896c0.997,0.176,1.63,0.584,1.896,1.228
				c0.497,1.17,0.846,1.882,1.045,2.134c0.2,0.251,1.009,0.651,2.429,1.2c1.419,0.547,2.418,0.873,2.996,0.975
				c4.728,0.834,7.614-1.718,8.661-7.652c0.306-1.733,0.486-3.218,0.541-4.453c-2.602,1.544-5.478,2.039-8.629,1.483
				c-1.313-0.231-2.72-0.858-4.217-1.881c-1.499-1.022-2.581-2.106-3.245-3.252c-1.295-2.179-1.613-5.131-0.955-8.861
				c0.786-4.464,2.677-9.195,5.67-14.191c3.679-6.121,7.33-8.862,10.954-8.223c2.206,0.389,4.126,1.784,5.761,4.184
				c1.128,2.203,2.261,4.379,3.398,6.529c0.327,0.6,0.899,1.188,1.72,1.766C226.889,76.938,227.528,77.457,227.797,77.775z
				 M219.007,81.099c0.139-0.788-0.113-1.509-0.756-2.164c0.537-4.887-0.719-7.6-3.765-8.137c-1.732-0.306-3.608,1.882-5.625,6.563
				c-1.498,3.582-2.487,6.738-2.969,9.468c-0.908,5.148-0.022,7.957,2.656,8.43c2.521,0.444,4.878-1.252,7.071-5.09
				C217.331,87.221,218.46,84.199,219.007,81.099z"/>
		</g>
	</g>
</g>
</svg>
