<?xml version="1.0" encoding="iso-8859-1"?>
<!-- Generator: Adobe Illustrator 16.0.4, SVG Export Plug-In . SVG Version: 6.00 Build 0)  -->
<!DOCTYPE svg PUBLIC "-//W3C//DTD SVG 1.1//EN" "http://www.w3.org/Graphics/SVG/1.1/DTD/svg11.dtd">
<svg version="1.1" id="Layer_1" xmlns="http://www.w3.org/2000/svg" xmlns:xlink="http://www.w3.org/1999/xlink" x="0px" y="0px" width="229.536px" height="115.916px" viewBox="0 0 229.536 115.916" style="enable-background:new 0 0 229.536 115.916;" xml:space="preserve">
  <filter id="dropShadow">
    <feGaussianBlur in="SourceAlpha" stdDeviation="3" />
    <feOffset dx="2" dy="4" />
    <feMerge>
        <feMergeNode />
        <feMergeNode in="SourceGraphic" />
    </feMerge>
  </filter>
<g>
    <image style="overflow:visible;opacity:0.5;enable-background:new    ;" width="613" height="213" xlink:href="../GitHub/ema/public/img/8C2807ACC596048A.png" transform="matrix(0.2379 0 0 0.2379 0 0)">
    </image>
    <g>
      <g>
        <path style="fill:#010101;" d="M1.831,2.494h34.381v8.864H14.688v6.599h19.966v8.468H14.688v8.185h22.146v9.402H1.831V2.494z" />
        <path style="fill:#010101;" d="M43.603,2.494h16.872l6.506,25.262l6.46-25.262h16.862v41.518H79.796V12.349L71.7,44.011h-9.51
				l-8.081-31.662v31.662H43.603V2.494z" />
        <path style="fill:#010101;" d="M124.011,37.158h-14.564l-2.023,6.854H94.324l15.604-41.518h13.995l15.601,41.518h-13.435
				L124.011,37.158z M121.351,28.18l-4.583-14.925l-4.535,14.925H121.351z" />
      </g>
      <g>
        <path style="fill:none;stroke:#C33A45;stroke-width:2;" d="M1.831,2.494h34.381v8.864H14.688v6.599h19.966v8.468H14.688v8.185
				h22.146v9.402H1.831V2.494z" />
        <path style="fill:none;stroke:#C33A45;stroke-width:2;" d="M43.603,2.494h16.872l6.506,25.262l6.46-25.262h16.862v41.518H79.796
				V12.349L71.7,44.011h-9.51l-8.081-31.662v31.662H43.603V2.494z" />
        <path style="fill:none;stroke:#C33A45;stroke-width:2;" d="M124.011,37.158h-14.564l-2.023,6.854H94.324l15.604-41.518h13.995
				l15.601,41.518h-13.435L124.011,37.158z M121.351,28.18l-4.583-14.925l-4.535,14.925H121.351z" />
      </g>
    </g>
  </g>
  <g>
    <image style="overflow:visible;opacity:0.5;enable-background:new    ;" width="950" height="333" xlink:href="../GitHub/ema/public/img/8C2807ACC596048E.png" transform="matrix(0.239 0 0 0.239 2.4663 36.3223)">
    </image>
    <g>
      <g>
        <path style="fill:#C33A45;" d="M40.897,82.398c-0.175,0.994-0.65,2.148-1.424,3.469c-1.922,3.221-4.87,5.504-8.844,6.852
				c-3.622,1.195-7.403,1.443-11.342,0.75c-6.46-1.139-10.994-4.453-13.6-9.943c-2.245-4.773-2.775-10.52-1.591-17.234
				c0.98-5.559,2.767-10.625,5.36-15.197c2.923-5.217,6.554-9.066,10.89-11.545c3.429-1.937,6.691-2.633,9.791-2.087
				c4.464,0.787,7.509,3.329,9.135,7.623c1.335,3.484,1.582,7.618,0.739,12.396c-0.38,2.154-1.408,4.761-3.085,7.824
				c-2.018,3.76-3.84,5.496-5.468,5.209c-1.839-0.324-3.026-1.723-3.564-4.203c0.589-0.273,1.432-0.748,2.526-1.422
				c1.253-0.971,2.177-3.137,2.77-6.499c0.574-3.256,0.718-6.074,0.435-8.453c-0.449-3.599-1.881-5.612-4.297-6.038
				c-1.682-0.297-3.709,0.454-6.083,2.251c-1.811,1.357-3.416,2.939-4.817,4.746c-3.462,4.58-5.853,10.62-7.175,18.116
				c-1.923,10.906,1.212,17.08,9.406,18.525c3.518,0.621,6.477,0.121,8.875-1.502c0.996-0.738,2.557-2.371,4.682-4.902
				c1.462-1.838,2.823-2.648,4.083-2.426c0.84,0.146,1.518,0.604,2.033,1.369C40.847,80.842,41.035,81.615,40.897,82.398z" />
        <path style="fill:#C33A45;" d="M73.661,81.078c-1.195,6.775-2.248,11.52-3.159,14.229c-0.55,1.58-1.797,2.201-3.74,1.859
				c-2.942-0.521-3.995-2.223-3.161-5.107c-2.849,0.797-5.691,0.945-8.527,0.445c-2.732-0.48-5.211-1.623-7.438-3.424
				c-2.655-2.146-3.759-4.48-3.315-7c0.436-2.469,2.523-4.482,6.265-6.045c3.388-1.406,6.423-1.873,9.101-1.4l6.697,1.18
				l0.331-1.875c1.017-5.463-0.128-8.486-3.438-9.07c-4.149-0.73-6.563,0.828-7.241,4.674c-0.229,1.301-1.08,1.82-2.55,1.561
				c-0.894-0.156-1.754-0.727-2.582-1.713c-0.829-0.984-1.164-1.924-1.006-2.818c0.519-2.941,1.995-5.172,4.43-6.691
				c2.434-1.522,5.121-2.022,8.063-1.502C72.266,60.117,76.022,67.684,73.661,81.078z M65.203,82.512
				c0.185-1.051-0.51-1.715-2.085-1.994c-6.566-1.158-10.122-0.186-10.668,2.912c-0.296,1.684,1,2.775,3.889,3.285
				c1.785,0.314,3.554,0.113,5.306-0.607C63.73,85.338,64.917,84.139,65.203,82.512z" />
        <path style="fill:#C33A45;" d="M99.501,65.58c-0.25,1.418-2.58,2.037-6.99,1.854c-0.308,1.139-0.822,3.754-1.545,7.852
				l-0.917,5.199c-0.185,1.051-0.301,2.627-0.347,4.73c-0.046,2.104-0.157,3.656-0.333,4.654c-0.148,0.84-0.701,1.514-1.656,2.021
				c-0.957,0.51-1.855,0.688-2.695,0.539c-1.313-0.23-2.217-1.555-2.711-3.971c-0.378-1.854-0.423-3.594-0.136-5.223l2.945-16.703
				c-2.352-0.793-3.702-1.273-4.051-1.445c-1.292-0.66-1.867-1.385-1.729-2.172c0.037-0.209,0.13-0.438,0.282-0.682
				c1.708-1.701,3.402-2.406,5.084-2.109c0.104,0.02,0.262,0.047,0.473,0.084c0.2,0.09,0.353,0.143,0.459,0.162
				c1.103,0.193,1.854-1,2.256-3.584l1.015-5.751c-0.162-0.624-0.204-1.145-0.13-1.566c0.12-0.682,0.632-1.229,1.535-1.638
				c0.903-0.409,1.719-0.55,2.447-0.421c1.093,0.193,2.042,0.888,2.851,2.087c0.808,1.198,1.11,2.376,0.906,3.531
				c-0.222,1.261-0.64,2.474-1.251,3.638c-0.611,1.165-1.007,2.409-1.186,3.731l-0.056,0.314
				C98.045,61.857,99.872,63.479,99.501,65.58z" />
        <path style="fill:#C33A45;" d="M123.943,87.371c-0.464,2.627-2.61,4.359-6.44,5.201c-2.988,0.662-6.005,0.729-9.052,0.189
				c-8.089-1.426-11.322-6.734-9.701-15.926c0.666-3.781,2.325-7.82,4.979-12.119c3.258-5.273,6.49-7.629,9.693-7.064
				c2.889,0.509,5.772,2.345,8.655,5.507c2.882,3.162,4.076,6.135,3.587,8.918c-0.611,3.465-2.647,5.949-6.107,7.453
				c-3.057,1.355-6.475,1.701-10.255,1.033c-0.736-0.129-1.84-0.783-3.31-1.963c-0.671,5.027,0.36,7.781,3.092,8.262
				c2.311,0.406,4.698,0.152,7.163-0.768c2.463-0.92,4.012-1.324,4.641-1.213C123.146,85.281,124.165,86.111,123.943,87.371z
				 M117.981,70.967c0.23-1.312,0.068-2.629-0.482-3.945c-0.553-1.314-1.461-2.084-2.722-2.307
				c-1.731-0.305-3.206,0.219-4.421,1.576c-1.019,1.174-1.687,2.656-2.001,4.439c-0.176,0.998,0.021,1.873,0.594,2.623
				c0.57,0.75,1.382,1.221,2.433,1.404C115.216,75.434,117.417,74.17,117.981,70.967z" />
        <path style="fill:#C33A45;" d="M150.806,66.703c-0.064,0.367-0.219,0.936-0.463,1.705c-1.381,1.381-2.676,1.965-3.883,1.752
				c-0.998-0.176-1.789-0.91-2.373-2.205c0.311-2.383-0.32-3.713-1.896-3.99c-0.945-0.168-2.541,2.125-4.786,6.873
				c-1.019,2.096-1.876,5.113-2.569,9.051c-0.658,3.73-0.886,6.02-0.682,6.867c0.216,1.068,0.292,1.785,0.229,2.152
				c-0.158,0.895-0.688,1.543-1.592,1.953c-0.904,0.408-1.851,0.525-2.838,0.354c-2.81-0.496-3.982-2.057-3.52-4.684
				c0.046-0.262,0.177-0.619,0.392-1.068c0.214-0.449,0.341-0.777,0.378-0.988c0.473-2.68,1.042-6.682,1.71-12.006
				c0.669-5.324,1.234-9.299,1.697-11.926c0.417-2.364,2.043-3.295,4.879-2.795c1.681,0.297,2.749,1,3.203,2.108
				c1.757-1.368,3.556-1.891,5.394-1.567c1.262,0.223,2.408,0.777,3.444,1.665c0.713,0.559,1.472,1.627,2.276,3.205
				C150.611,64.732,150.945,65.914,150.806,66.703z" />
        <path style="fill:#C33A45;" d="M163.339,62.479c-0.166,0.945-0.613,2.248-1.338,3.908c-0.728,1.658-1.174,2.961-1.34,3.906
				L157.8,86.521c-0.176,1-0.14,2.631,0.111,4.896c-1.009,1.066-1.99,1.516-2.945,1.348c-3.34-0.588-4.879-2.564-4.613-5.932
				c0.559-6.236,1.111-10.904,1.656-14.004c0.918-5.201,1.896-9.521,2.938-12.967c0.046-0.264,0.094-0.525,0.139-0.79
				c0.168-0.945,0.979-1.289,2.438-1.033c1.3,0.229,2.555,0.723,3.765,1.477C162.847,60.391,163.533,61.377,163.339,62.479z
				 M165.992,51.574c-0.204,1.156-0.765,2.032-1.682,2.628c-0.918,0.597-1.955,0.792-3.109,0.589
				c-1.366-0.241-2.556-0.938-3.571-2.092c-1.015-1.154-1.401-2.413-1.16-3.779c0.203-1.155,0.775-2.028,1.721-2.621
				c0.943-0.591,2.02-0.781,3.229-0.568c1.418,0.25,2.598,0.933,3.539,2.045C165.896,48.891,166.242,50.156,165.992,51.574z" />
        <path style="fill:#C33A45;" d="M189.193,93.906c-1.001,1.068-2.08,1.502-3.233,1.299c-0.895-0.158-2.271-0.943-4.135-2.355
				l0.166-0.943c0.204-1.156,0.531-2.859,0.982-5.107c0.449-2.248,0.769-3.898,0.953-4.951c1.981-11.238,1.302-17.154-2.041-17.744
				c-0.939-0.166-2.141,0.383-3.601,1.641c-4.505,3.863-7.317,8.975-8.438,15.328c-0.157,0.895-0.221,2.25-0.188,4.068
				c0.03,1.82-0.032,3.178-0.188,4.068c-0.131,0.736-0.58,1.279-1.344,1.633c-0.768,0.352-1.543,0.459-2.332,0.32
				c-3.15-0.557-4.375-2.83-3.672-6.822l2.904-16.465c0.073-0.42,0.234-1.029,0.482-1.824s0.41-1.404,0.484-1.824
				c0.111-0.631,0.182-1.564,0.21-2.807c0.028-1.24,0.095-2.148,0.197-2.727c0.147-0.84,0.774-1.556,1.881-2.146
				c1.104-0.59,2.054-0.816,2.841-0.677c1.154,0.204,2.221,1.069,3.198,2.594l-0.792,3.112c2.488-2.757,5.152-3.885,7.988-3.385
				c1.838,0.324,3.671,1.297,5.496,2.918c1.826,1.623,3.074,3.305,3.74,5.047c1.449,4.371,1.602,9.814,0.453,16.326L189.193,93.906z
				" />
        <path style="fill:#C33A45;" d="M224.407,71.023c-0.337,1.295-1.085,3.545-2.246,6.752c-1.035,2.797-1.705,5.061-2.011,6.793
				c-0.276,1.576-0.615,3.953-1.015,7.133c-0.397,3.18-0.735,5.557-1.014,7.133c-0.574,3.256-1.314,5.617-2.224,7.082
				c-1.088,1.865-2.765,3.234-5.03,4.107s-4.502,1.115-6.708,0.727c-2.312-0.406-5.062-1.541-8.254-3.404
				c-3.837-2.193-5.599-4.184-5.284-5.969c0.408-2.312,1.688-3.275,3.842-2.896c0.998,0.178,1.631,0.584,1.896,1.229
				c0.497,1.17,0.846,1.883,1.045,2.135c0.2,0.25,1.01,0.65,2.43,1.199c1.418,0.547,2.418,0.873,2.996,0.975
				c4.727,0.834,7.613-1.717,8.66-7.65c0.307-1.734,0.486-3.219,0.541-4.453c-2.602,1.543-5.479,2.039-8.629,1.482
				c-1.312-0.23-2.721-0.857-4.217-1.881c-1.499-1.021-2.581-2.105-3.245-3.252c-1.295-2.18-1.613-5.131-0.955-8.861
				c0.786-4.465,2.677-9.195,5.67-14.191c3.679-6.122,7.33-8.862,10.954-8.223c2.206,0.388,4.126,1.784,5.761,4.184
				c1.128,2.203,2.261,4.379,3.398,6.529c0.327,0.6,0.899,1.188,1.72,1.766C223.499,70.186,224.138,70.705,224.407,71.023z
				 M215.617,74.348c0.14-0.789-0.112-1.51-0.756-2.164c0.537-4.887-0.719-7.6-3.765-8.137c-1.732-0.307-3.608,1.881-5.625,6.562
				c-1.498,3.582-2.487,6.738-2.969,9.469c-0.908,5.146-0.022,7.957,2.655,8.43c2.521,0.443,4.878-1.252,7.071-5.09
				C213.941,80.469,215.07,77.447,215.617,74.348z" />
      </g>
    </g>
  </g>
</svg>
