<?xml version="1.0" encoding="utf-8"?>
<!-- Generator: Adobe Illustrator 16.0.4, SVG Export Plug-In . SVG Version: 6.00 Build 0)  -->
<!DOCTYPE svg PUBLIC "-//W3C//DTD SVG 1.1//EN" "http://www.w3.org/Graphics/SVG/1.1/DTD/svg11.dtd">
<svg version="1.1" id="Layer_1" xmlns="http://www.w3.org/2000/svg" xmlns:xlink="http://www.w3.org/1999/xlink" x="0px" y="0px"
	 width="229.536px" height="115.916px" viewBox="0 0 229.536 115.916" enable-background="new 0 0 229.536 115.916"
	 xml:space="preserve">
<g>
	<path fill="none" stroke="#C33A45" stroke-width="2" d="M1.831,2.494h34.381v8.864H14.688v6.599h19.966v8.468H14.688v8.185h22.146
		v9.402H1.831V2.494z"/>
	<path fill="none" stroke="#C33A45" stroke-width="2" d="M43.603,2.494h16.872l6.506,25.262l6.46-25.262h16.862v41.518H79.796
		V12.349L71.7,44.011h-9.51l-8.081-31.662v31.662H43.603V2.494z"/>
	<path fill="none" stroke="#C33A45" stroke-width="2" d="M124.011,37.158h-14.564l-2.023,6.854h-13.1l15.604-41.518h13.994
		l15.602,41.518h-13.436L124.011,37.158z M121.351,28.18l-4.583-14.925l-4.535,14.925H121.351z"/>
	<path fill="#010101" d="M1.831,2.494h34.381v8.864H14.688v6.599h19.966v8.468H14.688v8.185h22.146v9.402H1.831V2.494z"/>
	<path fill="#010101" d="M43.603,2.494h16.872l6.506,25.262l6.46-25.262h16.862v41.518H79.796V12.349L71.7,44.011h-9.51
		l-8.081-31.662v31.662H43.603V2.494z"/>
	<path fill="#010101" d="M124.011,37.158h-14.564l-2.023,6.854h-13.1l15.604-41.518h13.994l15.602,41.518h-13.436L124.011,37.158z
		 M121.351,28.18l-4.583-14.925l-4.535,14.925H121.351z"/>
</g>
<g>
	<g>
		<g>
			<path fill="#C33A45" stroke="#000000" stroke-miterlimit="10" d="M40.897,82.397c-0.175,0.994-0.65,2.147-1.424,3.47
				c-1.922,3.221-4.87,5.504-8.844,6.852c-3.622,1.195-7.403,1.443-11.342,0.75c-6.46-1.139-10.994-4.452-13.6-9.942
				c-2.245-4.772-2.775-10.521-1.591-17.233c0.98-5.56,2.767-10.625,5.36-15.197c2.923-5.217,6.554-9.066,10.89-11.545
				c3.429-1.937,6.691-2.633,9.791-2.087c4.464,0.787,7.509,3.329,9.135,7.623c1.335,3.484,1.582,7.618,0.739,12.396
				c-0.38,2.155-1.408,4.761-3.085,7.825c-2.018,3.76-3.84,5.496-5.468,5.209c-1.839-0.324-3.026-1.724-3.564-4.203
				c0.589-0.272,1.432-0.748,2.526-1.422c1.253-0.972,2.177-3.138,2.77-6.5c0.574-3.256,0.718-6.074,0.435-8.453
				c-0.449-3.599-1.881-5.612-4.297-6.038c-1.682-0.297-3.709,0.454-6.083,2.251c-1.811,1.357-3.416,2.939-4.817,4.746
				c-3.462,4.58-5.853,10.621-7.175,18.117C9.33,79.92,12.465,86.094,20.659,87.539c3.518,0.621,6.477,0.121,8.875-1.502
				c0.996-0.738,2.557-2.371,4.682-4.902c1.462-1.838,2.823-2.647,4.083-2.426c0.84,0.146,1.518,0.604,2.033,1.369
				C40.847,80.842,41.035,81.615,40.897,82.397z"/>
			<path fill="#C33A45" stroke="#000000" stroke-miterlimit="10" d="M73.661,81.078c-1.195,6.774-2.248,11.521-3.159,14.229
				c-0.55,1.58-1.797,2.199-3.74,1.857c-2.942-0.521-3.995-2.225-3.161-5.105c-2.849,0.797-5.691,0.943-8.527,0.443
				c-2.732-0.479-5.211-1.623-7.438-3.424c-2.655-2.146-3.759-4.479-3.315-7c0.436-2.471,2.523-4.48,6.265-6.045
				c3.388-1.406,6.423-1.873,9.101-1.4l6.697,1.182l0.331-1.875c1.017-5.463-0.128-8.486-3.438-9.07
				c-4.149-0.73-6.563,0.828-7.241,4.674c-0.229,1.301-1.08,1.82-2.55,1.561c-0.894-0.154-1.754-0.727-2.582-1.713
				c-0.829-0.982-1.164-1.924-1.006-2.816c0.519-2.941,1.995-5.174,4.43-6.691c2.434-1.522,5.121-2.022,8.063-1.502
				C72.266,60.117,76.022,67.685,73.661,81.078z M65.203,82.513c0.185-1.052-0.51-1.716-2.085-1.994
				c-6.566-1.158-10.122-0.187-10.668,2.912c-0.296,1.685,1,2.774,3.889,3.284c1.785,0.313,3.554,0.113,5.306-0.606
				C63.73,85.338,64.917,84.14,65.203,82.513z"/>
			<path fill="#C33A45" stroke="#000000" stroke-miterlimit="10" d="M99.501,65.58c-0.25,1.418-2.58,2.037-6.99,1.854
				c-0.308,1.139-0.822,3.754-1.545,7.852l-0.917,5.199c-0.185,1.051-0.301,2.627-0.347,4.729c-0.046,2.104-0.157,3.656-0.333,4.654
				c-0.148,0.84-0.701,1.514-1.656,2.021c-0.957,0.51-1.855,0.688-2.695,0.538c-1.313-0.229-2.217-1.555-2.711-3.971
				c-0.378-1.854-0.423-3.595-0.136-5.224l2.945-16.702c-2.352-0.794-3.702-1.273-4.051-1.445c-1.292-0.66-1.867-1.385-1.729-2.172
				c0.037-0.209,0.13-0.438,0.282-0.683c1.708-1.7,3.402-2.405,5.084-2.108c0.104,0.021,0.262,0.047,0.473,0.084
				c0.2,0.09,0.353,0.144,0.459,0.162c1.103,0.192,1.854-1,2.256-3.584l1.015-5.751c-0.162-0.624-0.204-1.145-0.13-1.566
				c0.12-0.682,0.632-1.229,1.535-1.638c0.903-0.409,1.719-0.55,2.447-0.421c1.093,0.193,2.042,0.888,2.851,2.087
				c0.808,1.198,1.11,2.376,0.906,3.531c-0.222,1.261-0.64,2.474-1.251,3.638c-0.611,1.165-1.007,2.409-1.186,3.73l-0.056,0.313
				C98.045,61.856,99.872,63.479,99.501,65.58z"/>
			<path fill="#C33A45" stroke="#000000" stroke-miterlimit="10" d="M123.943,87.371c-0.464,2.627-2.61,4.358-6.44,5.201
				c-2.986,0.661-6.003,0.729-9.05,0.188c-8.089-1.426-11.322-6.733-9.701-15.926c0.666-3.78,2.325-7.819,4.979-12.119
				c3.258-5.272,6.49-7.629,9.693-7.064c2.889,0.509,5.772,2.345,8.656,5.507c2.883,3.161,4.075,6.135,3.588,8.918
				c-0.611,3.465-2.647,5.948-6.107,7.452c-3.057,1.354-6.475,1.701-10.255,1.033c-0.736-0.129-1.84-0.783-3.31-1.963
				c-0.671,5.026,0.36,7.78,3.092,8.262c2.311,0.406,4.698,0.152,7.163-0.769c2.463-0.92,4.013-1.323,4.643-1.213
				C123.146,85.281,124.165,86.11,123.943,87.371z M117.981,70.967c0.23-1.312,0.068-2.629-0.482-3.944
				c-0.553-1.313-1.461-2.084-2.722-2.308c-1.731-0.305-3.206,0.22-4.421,1.576c-1.019,1.174-1.687,2.655-2.001,4.438
				c-0.176,0.998,0.021,1.873,0.594,2.623c0.57,0.75,1.382,1.222,2.433,1.403C115.216,75.435,117.417,74.17,117.981,70.967z"/>
			<path fill="#C33A45" stroke="#000000" stroke-miterlimit="10" d="M150.806,66.703c-0.063,0.366-0.22,0.937-0.464,1.705
				c-1.381,1.381-2.676,1.965-3.883,1.752c-0.998-0.177-1.789-0.91-2.373-2.205c0.312-2.384-0.319-3.713-1.896-3.99
				c-0.943-0.168-2.541,2.125-4.786,6.873c-1.019,2.097-1.876,5.113-2.567,9.052c-0.658,3.729-0.887,6.021-0.684,6.866
				c0.217,1.068,0.292,1.785,0.229,2.152c-0.157,0.895-0.688,1.543-1.592,1.952c-0.903,0.408-1.852,0.524-2.838,0.354
				c-2.811-0.496-3.981-2.057-3.521-4.684c0.046-0.264,0.177-0.619,0.392-1.068c0.215-0.447,0.342-0.775,0.379-0.986
				c0.473-2.682,1.041-6.684,1.709-12.008c0.67-5.322,1.234-9.299,1.697-11.926c0.417-2.364,2.043-3.295,4.879-2.795
				c1.682,0.297,2.749,1,3.203,2.107c1.758-1.369,3.557-1.892,5.395-1.566c1.263,0.225,2.408,0.775,3.443,1.665
				c0.713,0.56,1.473,1.627,2.276,3.205C150.611,64.731,150.945,65.914,150.806,66.703z"/>
			<path fill="#C33A45" stroke="#000000" stroke-miterlimit="10" d="M163.338,62.479c-0.166,0.943-0.612,2.248-1.338,3.908
				c-0.729,1.656-1.174,2.961-1.34,3.904l-2.861,16.229c-0.176,1-0.139,2.631,0.111,4.896c-1.01,1.065-1.99,1.517-2.945,1.349
				c-3.34-0.589-4.879-2.563-4.612-5.933c0.56-6.235,1.11-10.903,1.655-14.004c0.918-5.201,1.896-9.521,2.938-12.968
				c0.047-0.264,0.096-0.524,0.141-0.789c0.168-0.945,0.979-1.289,2.438-1.033c1.301,0.229,2.555,0.725,3.766,1.479
				C162.847,60.392,163.534,61.377,163.338,62.479z M165.993,51.574c-0.205,1.156-0.766,2.032-1.683,2.628
				c-0.918,0.597-1.955,0.792-3.108,0.589c-1.367-0.241-2.557-0.938-3.572-2.092c-1.014-1.154-1.399-2.413-1.158-3.779
				c0.201-1.155,0.773-2.028,1.721-2.621c0.941-0.591,2.021-0.781,3.229-0.568c1.418,0.25,2.599,0.933,3.539,2.045
				C165.896,48.891,166.243,50.156,165.993,51.574z"/>
			<path fill="#C33A45" stroke="#000000" stroke-miterlimit="10" d="M189.193,93.906c-1.001,1.067-2.08,1.502-3.233,1.299
				c-0.895-0.158-2.271-0.942-4.135-2.354l0.166-0.942c0.204-1.156,0.531-2.859,0.982-5.107c0.449-2.248,0.77-3.897,0.953-4.95
				c1.979-11.238,1.302-17.154-2.041-17.744c-0.939-0.166-2.141,0.383-3.602,1.642c-4.506,3.862-7.316,8.976-8.438,15.328
				c-0.157,0.896-0.222,2.25-0.188,4.067c0.029,1.819-0.033,3.178-0.188,4.067c-0.133,0.735-0.58,1.279-1.346,1.633
				c-0.768,0.353-1.543,0.459-2.332,0.32c-3.148-0.558-4.375-2.83-3.672-6.822l2.904-16.465c0.073-0.42,0.234-1.028,0.482-1.823
				c0.248-0.796,0.41-1.404,0.483-1.824c0.11-0.631,0.183-1.563,0.21-2.808c0.027-1.239,0.096-2.147,0.196-2.728
				c0.146-0.839,0.772-1.555,1.881-2.146c1.104-0.59,2.056-0.816,2.843-0.677c1.152,0.204,2.221,1.069,3.196,2.594l-0.792,3.112
				c2.488-2.759,5.152-3.885,7.988-3.385c1.838,0.326,3.671,1.297,5.496,2.917c1.824,1.623,3.072,3.306,3.738,5.048
				c1.449,4.37,1.604,9.813,0.453,16.325L189.193,93.906z"/>
			<path fill="#C33A45" stroke="#000000" stroke-miterlimit="10" d="M224.407,71.022c-0.337,1.295-1.085,3.545-2.246,6.752
				c-1.035,2.797-1.705,5.062-2.011,6.793c-0.276,1.576-0.614,3.953-1.015,7.134c-0.397,3.18-0.735,5.557-1.014,7.133
				c-0.574,3.256-1.314,5.617-2.226,7.082c-1.088,1.865-2.767,3.233-5.028,4.106c-2.267,0.873-4.503,1.115-6.709,0.728
				c-2.312-0.406-5.062-1.541-8.255-3.403c-3.837-2.193-5.599-4.185-5.282-5.97c0.406-2.312,1.688-3.274,3.842-2.896
				c0.998,0.178,1.631,0.584,1.896,1.229c0.497,1.17,0.847,1.883,1.045,2.135c0.2,0.25,1.011,0.65,2.431,1.199
				c1.418,0.547,2.418,0.873,2.996,0.975c4.728,0.834,7.612-1.717,8.66-7.648c0.307-1.734,0.485-3.221,0.54-4.453
				c-2.603,1.543-5.479,2.039-8.629,1.48c-1.312-0.229-2.721-0.855-4.217-1.881c-1.499-1.021-2.581-2.104-3.245-3.252
				c-1.295-2.18-1.613-5.131-0.955-8.861c0.786-4.465,2.678-9.193,5.67-14.189c3.68-6.122,7.33-8.862,10.954-8.223
				c2.206,0.388,4.126,1.783,5.761,4.184c1.129,2.203,2.262,4.379,3.398,6.529c0.326,0.6,0.898,1.188,1.72,1.766
				C223.499,70.187,224.138,70.705,224.407,71.022z M215.618,74.349c0.139-0.789-0.113-1.511-0.757-2.164
				c0.537-4.888-0.719-7.601-3.765-8.138c-1.732-0.307-3.608,1.881-5.625,6.562c-1.498,3.582-2.487,6.738-2.969,9.471
				c-0.908,5.146-0.022,7.957,2.654,8.43c2.52,0.443,4.879-1.252,7.07-5.09C213.941,80.469,215.07,77.446,215.618,74.349z"/>
		</g>
	</g>
</g>
</svg>
