<?xml version="1.0" encoding="utf-8"?>
<!-- Generator: Adobe Illustrator 16.0.4, SVG Export Plug-In . SVG Version: 6.00 Build 0)  -->
<!DOCTYPE svg PUBLIC "-//W3C//DTD SVG 1.1//EN" "http://www.w3.org/Graphics/SVG/1.1/DTD/svg11.dtd">
<svg version="1.1" id="Layer_1" xmlns="http://www.w3.org/2000/svg" xmlns:xlink="http://www.w3.org/1999/xlink" x="0px" y="0px"
	 width="60px" height="30px" viewBox="-14 1 60 30" enable-background="new -14 1 60 30" xml:space="preserve">
<path fill="#FFFFFF" d="M-7.305,10.004H11.9c0.883,0,1.6-0.896,1.6-2s-0.717-2-1.6-2H-7.305c-0.883,0-1.6,0.896-1.6,2
	S-8.188,10.004-7.305,10.004z M11.9,14.003H-7.305c-0.883,0-1.6,0.896-1.6,2c0,1.103,0.717,2,1.6,2H11.9c0.883,0,1.6-0.896,1.6-2
	C13.5,14.899,12.783,14.003,11.9,14.003z M11.9,22.001H-7.305c-0.883,0-1.6,0.896-1.6,1.999c0,1.104,0.717,2,1.6,2H11.9
	c0.883,0,1.6-0.896,1.6-2C13.5,22.897,12.783,22.001,11.9,22.001z"/>
<path fill="#555555" d="M20.1,10.001h19.205c0.883,0,1.6-0.896,1.6-2s-0.717-2-1.6-2H20.1c-0.883,0-1.6,0.896-1.6,2
	S19.217,10.001,20.1,10.001z M39.305,14H20.1c-0.883,0-1.6,0.896-1.6,1.999c0,1.104,0.717,2,1.6,2h19.205c0.883,0,1.6-0.896,1.6-2
	C40.904,14.896,40.188,14,39.305,14z M39.305,21.998H20.1c-0.883,0-1.6,0.896-1.6,2s0.717,2,1.6,2h19.205c0.883,0,1.6-0.896,1.6-2
	S40.188,21.998,39.305,21.998z"/>
</svg>
